<svg xmlns="http://www.w3.org/2000/svg" width="162" height="50" viewBox="0 0 162 50" fill="none">
  <path d="M0.111816 0.140991H40.9911V29.4194C40.9911 40.7079 31.8399 49.859 20.5514 49.859C9.26295 49.859 0.111816 40.7079 0.111816 29.4194V0.140991Z" fill="#086CB4"/>
  <path d="M0.111816 21.8696H40.9911V29.4193C40.9911 40.7078 31.8399 49.859 20.5514 49.859C9.26295 49.859 0.111816 40.7078 0.111816 29.4193V21.8696Z" fill="#086CB4"/>
  <mask id="mask0_92_186" style="mask-type:alpha" maskUnits="userSpaceOnUse" x="2" y="3" width="37" height="46">
    <path d="M2.13745 3.51169H38.9656V30.0279C38.9656 40.1978 30.7213 48.442 20.5515 48.442C10.3817 48.442 2.13745 40.1978 2.13745 30.0279V3.51169Z" fill="#D9D9D9"/>
  </mask>
  <g mask="url(#mask0_92_186)">
    <path d="M20.7356 3.51169H39.1497V21.9258H20.7356V3.51169Z" fill="white"/>
    <path fill-rule="evenodd" clip-rule="evenodd" d="M38.229 4.43239H21.6563V21.0051H38.229V4.43239ZM20.7356 3.51169V21.9258H39.1497V3.51169H20.7356Z" fill="#086CB4"/>
  </g>
  <path d="M29.7986 17.531C29.0033 17.531 28.256 17.3801 27.5566 17.0783C26.8571 16.7765 26.2487 16.3669 25.7313 15.8495C25.2139 15.3321 24.8043 14.7237 24.5025 14.0243C24.2007 13.3249 24.0498 12.5775 24.0498 11.7823C24.0498 10.987 24.2007 10.2397 24.5025 9.54024C24.8043 8.8408 25.2139 8.23239 25.7313 7.715C26.2487 7.19761 26.8571 6.78801 27.5566 6.48619C28.256 6.18438 29.0033 6.03348 29.7986 6.03348C31.1975 6.03348 32.4215 6.47182 33.4706 7.34851C34.5198 8.2252 35.1737 9.32466 35.4324 10.6469H34.2539C34.0718 9.94744 33.7437 9.32226 33.2694 8.77134C32.7951 8.22041 32.2131 7.80602 31.5232 7.52816V7.75811C31.5232 8.0743 31.4106 8.34497 31.1855 8.57013C30.9603 8.79529 30.6896 8.90787 30.3735 8.90787H29.2237V10.0576C29.2237 10.2205 29.1686 10.357 29.0584 10.4672C28.9482 10.5774 28.8117 10.6325 28.6488 10.6325H27.4991V11.7823H28.6488V13.5069H28.074L25.3145 10.7475C25.2858 10.9199 25.2594 11.0924 25.2355 11.2649C25.2115 11.4373 25.1996 11.6098 25.1996 11.7823C25.1996 13.0374 25.6403 14.1153 26.5218 15.016C27.4033 15.9166 28.4955 16.3717 29.7986 16.3813V17.531ZM35.03 17.2436L33.1904 15.404C32.9892 15.519 32.7736 15.6148 32.5436 15.6914C32.3137 15.7681 32.0694 15.8064 31.8107 15.8064C31.0921 15.8064 30.4813 15.5549 29.9782 15.0519C29.4752 14.5489 29.2237 13.9381 29.2237 13.2195C29.2237 12.5009 29.4752 11.89 29.9782 11.387C30.4813 10.884 31.0921 10.6325 31.8107 10.6325C32.5293 10.6325 33.1401 10.884 33.6431 11.387C34.1461 11.89 34.3976 12.5009 34.3976 13.2195C34.3976 13.4782 34.3593 13.7225 34.2826 13.9524C34.206 14.1824 34.1102 14.398 33.9952 14.5992L35.8348 16.4388L35.03 17.2436ZM31.8107 14.6567C32.2131 14.6567 32.5532 14.5177 32.8311 14.2399C33.1089 13.962 33.2479 13.6219 33.2479 13.2195C33.2479 12.817 33.1089 12.4769 32.8311 12.199C32.5532 11.9212 32.2131 11.7823 31.8107 11.7823C31.4082 11.7823 31.0681 11.9212 30.7903 12.199C30.5124 12.4769 30.3735 12.817 30.3735 13.2195C30.3735 13.6219 30.5124 13.962 30.7903 14.2399C31.0681 14.5177 31.4082 14.6567 31.8107 14.6567Z" fill="#086CB4"/>
  <path d="M6.37256 16.0775V14.5776C6.37256 14.2741 6.45068 13.9951 6.60692 13.7406C6.76316 13.4862 6.97074 13.292 7.22965 13.1581C7.78319 12.8813 8.34565 12.6737 8.91705 12.5353C9.48844 12.397 10.0688 12.3278 10.658 12.3278C11.2473 12.3278 11.8276 12.397 12.399 12.5353C12.9704 12.6737 13.5328 12.8813 14.0864 13.1581C14.3453 13.292 14.5529 13.4862 14.7091 13.7406C14.8654 13.9951 14.9435 14.2741 14.9435 14.5776V16.0775H6.37256ZM16.0148 16.0775V14.4705C16.0148 14.0777 15.9055 13.7004 15.6867 13.3389C15.468 12.9773 15.1577 12.667 14.756 12.4081C15.2113 12.4617 15.6399 12.5532 16.0416 12.6827C16.4434 12.8121 16.8184 12.9706 17.1666 13.1581C17.488 13.3366 17.7335 13.5353 17.9031 13.754C18.0727 13.9728 18.1576 14.2116 18.1576 14.4705V16.0775H16.0148ZM10.658 11.7921C10.0688 11.7921 9.56433 11.5823 9.14471 11.1627C8.7251 10.743 8.51529 10.2386 8.51529 9.64935C8.51529 9.0601 8.7251 8.55567 9.14471 8.13605C9.56433 7.71643 10.0688 7.50662 10.658 7.50662C11.2473 7.50662 11.7517 7.71643 12.1713 8.13605C12.5909 8.55567 12.8007 9.0601 12.8007 9.64935C12.8007 10.2386 12.5909 10.743 12.1713 11.1627C11.7517 11.5823 11.2473 11.7921 10.658 11.7921ZM16.0148 9.64935C16.0148 10.2386 15.805 10.743 15.3854 11.1627C14.9658 11.5823 14.4614 11.7921 13.8721 11.7921C13.7739 11.7921 13.6489 11.7809 13.4971 11.7586C13.3454 11.7363 13.2204 11.7117 13.1222 11.6849C13.3632 11.3992 13.5485 11.0823 13.6779 10.7341C13.8074 10.3859 13.8721 10.0243 13.8721 9.64935C13.8721 9.27437 13.8074 8.91279 13.6779 8.56459C13.5485 8.2164 13.3632 7.89946 13.1222 7.61376C13.2471 7.56912 13.3721 7.5401 13.4971 7.52671C13.6221 7.51332 13.7471 7.50662 13.8721 7.50662C14.4614 7.50662 14.9658 7.71643 15.3854 8.13605C15.805 8.55567 16.0148 9.0601 16.0148 9.64935Z" fill="white"/>
  <path d="M12.6111 38.952C11.7783 38.952 11.024 38.7555 10.3484 38.3627C9.6727 37.9699 9.14237 37.4278 8.7574 36.7364C8.37242 36.045 8.17993 35.2711 8.17993 34.4147C8.17993 33.5583 8.37242 32.7845 8.7574 32.0931C9.14237 31.4017 9.66877 30.8635 10.3366 30.4785C11.0123 30.0857 11.7704 29.8893 12.6111 29.8893C13.2239 29.8893 13.7857 29.9953 14.2963 30.2075C14.8149 30.4118 15.2509 30.6907 15.6045 31.0442C15.958 31.3978 16.2134 31.7945 16.3705 32.2345L14.756 33.0123C14.5988 32.5723 14.3317 32.2188 13.9546 31.9517C13.5775 31.6767 13.1296 31.5392 12.6111 31.5392C12.1004 31.5392 11.6447 31.661 11.244 31.9045C10.8512 32.1402 10.5448 32.4781 10.3248 32.918C10.1127 33.3501 10.0066 33.849 10.0066 34.4147C10.0066 34.9804 10.1127 35.4832 10.3248 35.9232C10.5448 36.3553 10.8512 36.6932 11.244 36.9367C11.6447 37.1803 12.1004 37.302 12.6111 37.302C13.1296 37.302 13.5775 37.1685 13.9546 36.9014C14.3317 36.6264 14.5988 36.2689 14.756 35.8289L16.3705 36.6067C16.2134 37.0467 15.958 37.4435 15.6045 37.797C15.2509 38.1506 14.8149 38.4334 14.2963 38.6455C13.7857 38.8498 13.2239 38.952 12.6111 38.952Z" fill="white"/>
  <path d="M21.634 38.952C20.8012 38.952 20.047 38.7555 19.3713 38.3627C18.6956 37.9699 18.1653 37.4278 17.7803 36.7364C17.3954 36.045 17.2029 35.2711 17.2029 34.4147C17.2029 33.5583 17.3954 32.7845 17.7803 32.0931C18.1653 31.4017 18.6917 30.8635 19.3595 30.4785C20.0352 30.0857 20.7934 29.8893 21.634 29.8893C22.2469 29.8893 22.8086 29.9953 23.3193 30.2075C23.8378 30.4118 24.2739 30.6907 24.6274 31.0442C24.981 31.3978 25.2363 31.7945 25.3935 32.2345L23.7789 33.0123C23.6218 32.5723 23.3547 32.2188 22.9775 31.9517C22.6004 31.6767 22.1526 31.5392 21.634 31.5392C21.1234 31.5392 20.6677 31.661 20.267 31.9045C19.8741 32.1402 19.5677 32.4781 19.3478 32.918C19.1356 33.3501 19.0296 33.849 19.0296 34.4147C19.0296 34.9804 19.1356 35.4832 19.3478 35.9232C19.5677 36.3553 19.8741 36.6932 20.267 36.9367C20.6677 37.1803 21.1234 37.302 21.634 37.302C22.1526 37.302 22.6004 37.1685 22.9775 36.9014C23.3547 36.6264 23.6218 36.2689 23.7789 35.8289L25.3935 36.6067C25.2363 37.0467 24.981 37.4435 24.6274 37.797C24.2739 38.1506 23.8378 38.4334 23.3193 38.6455C22.8086 38.8498 22.2469 38.952 21.634 38.952Z" fill="white"/>
  <path d="M29.6788 38.952C28.9403 38.952 28.3118 38.8145 27.7932 38.5395C27.2747 38.2645 26.8779 37.9227 26.6029 37.5142C26.328 37.0978 26.159 36.6774 26.0962 36.2532L27.8286 35.8171C28.0329 36.7678 28.6614 37.2431 29.7142 37.2431C30.0835 37.2431 30.3741 37.1606 30.5863 36.9956C30.8063 36.8306 30.9163 36.6146 30.9163 36.3475C30.9163 36.1196 30.8338 35.9271 30.6688 35.77C30.5116 35.6129 30.2917 35.5068 30.0088 35.4518L28.7832 35.2279C28.0446 35.0943 27.4633 34.7918 27.039 34.3204C26.6226 33.849 26.4144 33.2559 26.4144 32.5409C26.4144 32.0617 26.5558 31.6177 26.8386 31.2092C27.1293 30.8007 27.5065 30.4785 27.97 30.2428C28.4414 30.0071 28.9364 29.8893 29.4549 29.8893C30.1542 29.8893 30.7356 30.0071 31.1991 30.2428C31.6705 30.4707 32.028 30.7574 32.2715 31.1031C32.5151 31.441 32.6722 31.7906 32.7429 32.152L31.0223 32.6705C30.8573 32.262 30.6609 31.9831 30.4331 31.8338C30.2052 31.6767 29.8792 31.5981 29.4549 31.5981C29.2349 31.5981 29.0385 31.6452 28.8657 31.7395C28.7007 31.826 28.571 31.9399 28.4768 32.0813C28.3825 32.2149 28.3353 32.3523 28.3353 32.4938C28.3353 32.7216 28.4061 32.9102 28.5475 33.0594C28.6889 33.2087 28.8971 33.3109 29.1721 33.3659L30.3859 33.6133C31.1795 33.7783 31.7923 34.0965 32.2244 34.5679C32.6565 35.0393 32.8726 35.6011 32.8726 36.2532C32.8726 36.701 32.7429 37.1331 32.4837 37.5495C32.2323 37.9659 31.863 38.3038 31.3759 38.563C30.8966 38.8223 30.3309 38.952 29.6788 38.952Z" fill="white"/>
  <path d="M83.8814 37.4808H86.7362L90.2285 47.8051H87.8864L87.1935 45.6987H83.4102L82.7173 47.8051H80.3892L83.8814 37.4808ZM86.5976 43.8278L85.3088 39.8505L84.0061 43.8278H86.5976Z" fill="#021F33"/>
  <path d="M76.0521 39.3516H73.4329V37.4808H80.7777V39.3516H78.2001V47.8051H76.0521V39.3516Z" fill="#021F33"/>
  <path d="M68.2687 47.9714C67.465 47.9714 66.7397 47.8005 66.093 47.4587C65.4555 47.1168 64.952 46.6456 64.5825 46.0451C64.2221 45.4446 64.042 44.7702 64.042 44.0218V37.4808H66.19V43.8832C66.19 44.5022 66.384 45.015 66.7721 45.4215C67.1693 45.828 67.6682 46.0313 68.2687 46.0313C68.8693 46.0313 69.3635 45.828 69.7516 45.4215C70.1488 45.015 70.3475 44.5022 70.3475 43.8832V37.4808H72.4955V44.0218C72.4955 44.7702 72.3107 45.4446 71.9411 46.0451C71.5808 46.6456 71.0773 47.1168 70.4306 47.4587C69.7931 47.8005 69.0725 47.9714 68.2687 47.9714Z" fill="#021F33"/>
  <path d="M56.0334 37.4808H63.1011V39.3516H58.1815V41.9708H62.4082V43.8417H58.1815V47.8051H56.0334V37.4808Z" fill="#021F33"/>
  <path d="M158.993 30.6348C158.198 30.6348 157.501 30.4547 156.9 30.0943C156.309 29.7248 155.898 29.2213 155.667 28.5838L157.163 27.8077C157.367 28.1958 157.63 28.5007 157.953 28.7224C158.277 28.9349 158.637 29.0411 159.034 29.0411C159.339 29.0411 159.575 28.9811 159.741 28.861C159.907 28.7409 159.991 28.5746 159.991 28.3621C159.991 28.1958 159.926 28.0526 159.796 27.9325C159.667 27.8124 159.473 27.7292 159.214 27.683L157.926 27.4336C157.297 27.2858 156.803 27.0086 156.443 26.6021C156.092 26.1863 155.916 25.6967 155.916 25.1331C155.916 24.6619 156.036 24.2462 156.277 23.8859C156.526 23.5256 156.872 23.2484 157.316 23.0544C157.769 22.8511 158.286 22.7495 158.868 22.7495C159.57 22.7495 160.189 22.9158 160.725 23.2484C161.261 23.5718 161.653 24.0291 161.903 24.6204L160.392 25.3964C160.272 25.1008 160.069 24.8652 159.783 24.6897C159.496 24.5049 159.177 24.4125 158.826 24.4125C158.54 24.4125 158.318 24.4679 158.161 24.5788C158.004 24.6897 157.926 24.8421 157.926 25.0361C157.926 25.1932 157.99 25.3318 158.12 25.4519C158.258 25.5627 158.475 25.6551 158.771 25.729L159.977 25.9785C160.623 26.154 161.122 26.4404 161.473 26.8377C161.824 27.2257 162 27.6969 162 28.2512C162 28.7224 161.875 29.1381 161.626 29.4984C161.376 29.8588 161.025 30.1405 160.573 30.3438C160.12 30.5378 159.593 30.6348 158.993 30.6348Z" fill="#021F33"/>
  <path d="M151.228 30.6487C150.452 30.6487 149.763 30.4731 149.163 30.1221C148.562 29.771 148.096 29.2952 147.763 28.6947C147.44 28.0849 147.278 27.4151 147.278 26.6852C147.278 25.9461 147.444 25.2763 147.777 24.6758C148.11 24.0753 148.567 23.6041 149.149 23.2623C149.731 22.9204 150.378 22.7495 151.089 22.7495C151.865 22.7495 152.535 22.9112 153.099 23.2345C153.662 23.5579 154.092 24.006 154.387 24.5788C154.683 25.1424 154.831 25.7752 154.831 26.4774C154.831 26.8192 154.798 27.0871 154.734 27.2811H149.44C149.505 27.7616 149.694 28.145 150.008 28.4314C150.331 28.7085 150.747 28.8471 151.255 28.8471C151.616 28.8471 151.93 28.7732 152.198 28.6254C152.466 28.4776 152.674 28.2743 152.821 28.0156L154.484 28.8055C154.253 29.3599 153.842 29.8079 153.251 30.1498C152.669 30.4824 151.994 30.6487 151.228 30.6487ZM152.627 25.7567C152.581 25.3502 152.419 25.0269 152.142 24.7867C151.865 24.5372 151.514 24.4125 151.089 24.4125C150.673 24.4125 150.322 24.528 150.036 24.7589C149.759 24.9899 149.574 25.3225 149.482 25.7567H152.627Z" fill="#021F33"/>
  <path d="M142.825 30.6487C142.077 30.6487 141.393 30.4778 140.774 30.1359C140.164 29.7848 139.684 29.309 139.333 28.7085C138.982 28.0988 138.806 27.4243 138.806 26.6852C138.806 25.9461 138.982 25.2763 139.333 24.6758C139.684 24.0753 140.164 23.6041 140.774 23.2623C141.393 22.9204 142.077 22.7495 142.825 22.7495C143.675 22.7495 144.419 22.962 145.056 23.387C145.703 23.812 146.142 24.3755 146.373 25.0777L144.571 25.8537C144.442 25.475 144.22 25.1747 143.906 24.953C143.592 24.7312 143.232 24.6204 142.825 24.6204C142.28 24.6204 141.832 24.8144 141.481 25.2024C141.13 25.5904 140.954 26.0893 140.954 26.6991C140.954 27.3089 141.13 27.8077 141.481 28.1958C141.832 28.5838 142.28 28.7778 142.825 28.7778C143.241 28.7778 143.601 28.667 143.906 28.4452C144.22 28.2235 144.442 27.9232 144.571 27.5444L146.373 28.3344C146.151 29.018 145.717 29.577 145.07 30.0112C144.423 30.4362 143.675 30.6487 142.825 30.6487Z" fill="#021F33"/>
  <path d="M135.511 22.9158H137.59V30.4824H135.511V22.9158ZM135.387 20.7817C135.387 20.4029 135.488 20.1165 135.692 19.9225C135.895 19.7192 136.181 19.6176 136.551 19.6176C136.93 19.6176 137.216 19.7192 137.41 19.9225C137.613 20.1165 137.715 20.4029 137.715 20.7817C137.715 21.1605 137.613 21.4515 137.41 21.6547C137.216 21.8487 136.93 21.9458 136.551 21.9458C136.181 21.9458 135.895 21.8441 135.692 21.6409C135.488 21.4376 135.387 21.1512 135.387 20.7817Z" fill="#021F33"/>
  <path d="M126.835 22.9158H129.08L130.716 27.4475L132.351 22.9158H134.596L131.617 30.4824H129.815L126.835 22.9158Z" fill="#021F33"/>
  <path d="M122.1 22.9158H124.04V24.0522C124.225 23.6087 124.488 23.2946 124.83 23.1098C125.172 22.9251 125.592 22.8327 126.091 22.8327H126.534V24.6342H125.883C125.366 24.6342 124.95 24.7913 124.636 25.1054C124.331 25.4195 124.178 25.8538 124.178 26.4081V30.4824H122.1V22.9158Z" fill="#021F33"/>
  <path d="M117.273 30.6487C116.497 30.6487 115.808 30.4731 115.208 30.1221C114.607 29.771 114.141 29.2952 113.808 28.6947C113.485 28.0849 113.323 27.4151 113.323 26.6852C113.323 25.9461 113.489 25.2763 113.822 24.6758C114.154 24.0753 114.612 23.6041 115.194 23.2623C115.776 22.9204 116.423 22.7495 117.134 22.7495C117.91 22.7495 118.58 22.9112 119.143 23.2345C119.707 23.5579 120.137 24.006 120.432 24.5788C120.728 25.1424 120.876 25.7752 120.876 26.4774C120.876 26.8192 120.843 27.0871 120.779 27.2811H115.485C115.55 27.7616 115.739 28.145 116.053 28.4314C116.376 28.7085 116.792 28.8471 117.3 28.8471C117.661 28.8471 117.975 28.7732 118.243 28.6254C118.511 28.4776 118.718 28.2743 118.866 28.0156L120.529 28.8055C120.298 29.3599 119.887 29.8079 119.296 30.1498C118.714 30.4824 118.039 30.6487 117.273 30.6487ZM118.672 25.7567C118.626 25.3502 118.464 25.0269 118.187 24.7867C117.91 24.5372 117.559 24.4125 117.134 24.4125C116.718 24.4125 116.367 24.528 116.081 24.7589C115.804 24.9899 115.619 25.3225 115.526 25.7567H118.672Z" fill="#021F33"/>
  <path d="M108.563 30.6487C107.695 30.6487 106.956 30.487 106.346 30.1637C105.736 29.8403 105.27 29.4384 104.946 28.958C104.623 28.4683 104.424 27.9741 104.35 27.4752L106.387 26.9624C106.628 28.0803 107.367 28.6393 108.605 28.6393C109.039 28.6393 109.381 28.5423 109.63 28.3482C109.889 28.1542 110.018 27.9002 110.018 27.586C110.018 27.3181 109.921 27.0918 109.727 26.907C109.543 26.7222 109.284 26.5975 108.951 26.5328L107.51 26.2695C106.642 26.1125 105.958 25.7568 105.459 25.2024C104.969 24.6481 104.725 23.9506 104.725 23.1098C104.725 22.5463 104.891 22.0243 105.223 21.5439C105.565 21.0635 106.009 20.6847 106.554 20.4075C107.108 20.1303 107.69 19.9918 108.3 19.9918C109.122 19.9918 109.806 20.1303 110.351 20.4075C110.905 20.6754 111.326 21.0126 111.612 21.4192C111.898 21.8164 112.083 22.2275 112.166 22.6525L110.143 23.2623C109.949 22.7819 109.718 22.4539 109.45 22.2784C109.182 22.0936 108.799 22.0012 108.3 22.0012C108.041 22.0012 107.81 22.0566 107.607 22.1675C107.413 22.2691 107.261 22.4031 107.15 22.5694C107.039 22.7264 106.983 22.8881 106.983 23.0544C106.983 23.3223 107.067 23.5441 107.233 23.7196C107.399 23.8951 107.644 24.0152 107.967 24.0799L109.395 24.3709C110.328 24.565 111.048 24.9391 111.557 25.4935C112.065 26.0478 112.319 26.7084 112.319 27.4752C112.319 28.0018 112.166 28.5099 111.861 28.9996C111.566 29.4892 111.132 29.8865 110.559 30.1914C109.995 30.4963 109.33 30.6487 108.563 30.6487Z" fill="#021F33"/>
  <path d="M96.8193 22.9158H98.7595V24.0522C98.9443 23.6087 99.2076 23.2946 99.5494 23.1098C99.8912 22.9251 100.312 22.8327 100.81 22.8327H101.254V24.6342H100.603C100.085 24.6342 99.6695 24.7913 99.3554 25.1054C99.0505 25.4195 98.8981 25.8538 98.8981 26.4081V30.4824H96.8193V22.9158Z" fill="#021F33"/>
  <path d="M91.9921 30.6487C91.216 30.6487 90.5277 30.4731 89.9272 30.1221C89.3267 29.771 88.8601 29.2952 88.5275 28.6947C88.2042 28.0849 88.0425 27.4151 88.0425 26.6852C88.0425 25.9461 88.2088 25.2763 88.5414 24.6758C88.874 24.0753 89.3313 23.6041 89.9133 23.2623C90.4954 22.9204 91.1421 22.7495 91.8535 22.7495C92.6295 22.7495 93.2993 22.9112 93.8629 23.2345C94.4265 23.5579 94.8561 24.006 95.1517 24.5788C95.4474 25.1424 95.5952 25.7752 95.5952 26.4774C95.5952 26.8192 95.5628 27.0871 95.4982 27.2811H90.2044C90.269 27.7616 90.4584 28.145 90.7725 28.4314C91.0959 28.7085 91.5116 28.8471 92.0198 28.8471C92.3801 28.8471 92.6942 28.7732 92.9621 28.6254C93.2301 28.4776 93.4379 28.2743 93.5857 28.0156L95.2487 28.8055C95.0178 29.3599 94.6066 29.8079 94.0154 30.1498C93.4333 30.4824 92.7589 30.6487 91.9921 30.6487ZM93.3917 25.7567C93.3455 25.3502 93.1839 25.0269 92.9067 24.7867C92.6295 24.5372 92.2785 24.4125 91.8535 24.4125C91.4377 24.4125 91.0867 24.528 90.8003 24.7589C90.5231 24.9899 90.3383 25.3225 90.2459 25.7567H93.3917Z" fill="#021F33"/>
  <path d="M83.5204 30.6487C82.7443 30.6487 82.056 30.4731 81.4555 30.1221C80.855 29.771 80.3884 29.2952 80.0558 28.6947C79.7325 28.0849 79.5708 27.4151 79.5708 26.6852C79.5708 25.9461 79.7371 25.2763 80.0697 24.6758C80.4023 24.0753 80.8596 23.6041 81.4417 23.2623C82.0237 22.9204 82.6704 22.7495 83.3818 22.7495C84.1579 22.7495 84.8277 22.9112 85.3912 23.2345C85.9548 23.5579 86.3844 24.006 86.68 24.5788C86.9757 25.1424 87.1235 25.7752 87.1235 26.4774C87.1235 26.8192 87.0912 27.0871 87.0265 27.2811H81.7327C81.7973 27.7616 81.9867 28.145 82.3009 28.4314C82.6242 28.7085 83.04 28.8471 83.5481 28.8471C83.9084 28.8471 84.2225 28.7732 84.4905 28.6254C84.7584 28.4776 84.9662 28.2743 85.1141 28.0156L86.7771 28.8055C86.5461 29.3599 86.135 29.8079 85.5437 30.1498C84.9616 30.4824 84.2872 30.6487 83.5204 30.6487ZM84.9201 25.7567C84.8739 25.3502 84.7122 25.0269 84.435 24.7867C84.1579 24.5372 83.8068 24.4125 83.3818 24.4125C82.9661 24.4125 82.615 24.528 82.3286 24.7589C82.0514 24.9899 81.8666 25.3225 81.7743 25.7567H84.9201Z" fill="#021F33"/>
  <path d="M74.5298 22.9158H76.4699V24.0522C76.6547 23.6087 76.918 23.2946 77.2598 23.1098C77.6017 22.9251 78.022 22.8327 78.5209 22.8327H78.9644V24.6342H78.3131C77.7957 24.6342 77.3799 24.7913 77.0658 25.1054C76.761 25.4195 76.6085 25.8538 76.6085 26.4081V30.4824H74.5298V22.9158Z" fill="#021F33"/>
  <path d="M68.7927 30.6487C67.9704 30.6487 67.3237 30.4547 66.8525 30.0666C66.3813 29.6786 66.1458 29.1427 66.1458 28.4591C66.1458 27.8124 66.3675 27.2858 66.8109 26.8792C67.2636 26.4635 67.9381 26.1817 68.8342 26.0339L70.9268 25.7013V25.4934C70.9268 25.207 70.8113 24.9668 70.5804 24.7728C70.3494 24.5788 70.0445 24.4818 69.6657 24.4818C69.2962 24.4818 68.9682 24.5834 68.6818 24.7867C68.4046 24.9807 68.2014 25.2486 68.072 25.5904L66.4091 24.8005C66.6308 24.1723 67.0419 23.6734 67.6424 23.3038C68.2522 22.9343 68.959 22.7495 69.7627 22.7495C70.391 22.7495 70.9499 22.865 71.4396 23.096C71.9385 23.3269 72.3219 23.6503 72.5898 24.066C72.867 24.4818 73.0055 24.9576 73.0055 25.4934V30.4824H71.0654V29.7756C70.7698 30.0712 70.4372 30.293 70.0676 30.4408C69.6981 30.5794 69.2731 30.6487 68.7927 30.6487ZM68.2938 28.3898C68.2938 28.6208 68.3769 28.8009 68.5432 28.9303C68.7188 29.0596 68.9405 29.1243 69.2084 29.1243C69.7165 29.1243 70.1277 28.9672 70.4418 28.6531C70.7651 28.3297 70.9268 27.9325 70.9268 27.4613V27.2257L69.2084 27.5306C68.9035 27.586 68.6726 27.683 68.5155 27.8216C68.3677 27.9602 68.2938 28.1496 68.2938 28.3898Z" fill="#021F33"/>
  <path d="M60.9392 30.6487C59.9599 30.6487 59.073 30.4177 58.2784 29.9558C57.4839 29.4938 56.8603 28.8564 56.4076 28.0434C55.9549 27.2303 55.7285 26.3203 55.7285 25.3133C55.7285 24.3063 55.9549 23.3963 56.4076 22.5832C56.8603 21.7702 57.4793 21.1374 58.2646 20.6847C59.0591 20.2227 59.9506 19.9918 60.9392 19.9918C61.6598 19.9918 62.3204 20.1165 62.9209 20.3659C63.5307 20.6061 64.0434 20.9341 64.4592 21.3499C64.8749 21.7656 65.1752 22.2322 65.3599 22.7495L63.4614 23.6642C63.2766 23.1468 62.9625 22.7311 62.519 22.4169C62.0756 22.0936 61.5489 21.9319 60.9392 21.9319C60.3387 21.9319 59.8028 22.0751 59.3316 22.3615C58.8697 22.6387 58.5094 23.0359 58.2507 23.5533C58.0013 24.0614 57.8765 24.6481 57.8765 25.3133C57.8765 25.9785 58.0013 26.5698 58.2507 27.0871C58.5094 27.5953 58.8697 27.9925 59.3316 28.2789C59.8028 28.5653 60.3387 28.7085 60.9392 28.7085C61.5489 28.7085 62.0756 28.5515 62.519 28.2374C62.9625 27.914 63.2766 27.4936 63.4614 26.9763L65.3599 27.8909C65.1752 28.4083 64.8749 28.8748 64.4592 29.2906C64.0434 29.7063 63.5307 30.0389 62.9209 30.2884C62.3204 30.5286 61.6598 30.6487 60.9392 30.6487Z" fill="#021F33"/>
  <path d="M122.384 5.5931H124.324V6.72947C124.509 6.28601 124.772 5.97189 125.114 5.78711C125.456 5.60234 125.876 5.50995 126.375 5.50995H126.819V7.31151H126.167C125.65 7.31151 125.234 7.46857 124.92 7.78269C124.615 8.09681 124.463 8.53103 124.463 9.08536V13.1597H122.384V5.5931Z" fill="#021F33"/>
  <path d="M117.113 13.3259C116.374 13.3259 115.69 13.155 115.062 12.8132C114.443 12.4714 113.953 12.0002 113.593 11.3997C113.232 10.7991 113.052 10.1247 113.052 9.37637C113.052 8.62803 113.232 7.95359 113.593 7.35307C113.953 6.75255 114.443 6.28138 115.062 5.93954C115.69 5.59771 116.374 5.42679 117.113 5.42679C117.852 5.42679 118.531 5.59771 119.15 5.93954C119.769 6.28138 120.258 6.75255 120.619 7.35307C120.979 7.95359 121.159 8.62803 121.159 9.37637C121.159 10.1247 120.979 10.7991 120.619 11.3997C120.258 12.0002 119.769 12.4714 119.15 12.8132C118.531 13.155 117.852 13.3259 117.113 13.3259ZM115.2 9.37637C115.2 9.98613 115.376 10.485 115.727 10.8731C116.087 11.2611 116.549 11.4551 117.113 11.4551C117.676 11.4551 118.134 11.2611 118.485 10.8731C118.836 10.485 119.011 9.98613 119.011 9.37637C119.011 8.76661 118.831 8.26771 118.471 7.87969C118.12 7.49166 117.667 7.29764 117.113 7.29764C116.549 7.29764 116.087 7.49166 115.727 7.87969C115.376 8.26771 115.2 8.76661 115.2 9.37637Z" fill="#021F33"/>
  <path d="M105.511 2.83533H112.579V4.70618H107.659V7.32537H111.886V9.19623H107.659V13.1597H105.511V2.83533Z" fill="#021F33"/>
  <path d="M97.5232 5.5931H99.4633V6.72947C99.6481 6.28601 99.9114 5.97189 100.253 5.78711C100.595 5.60234 101.015 5.50995 101.514 5.50995H101.958V7.31151H101.306C100.789 7.31151 100.373 7.46857 100.059 7.78269C99.7544 8.09681 99.6019 8.53103 99.6019 9.08536V13.1597H97.5232V5.5931Z" fill="#021F33"/>
  <path d="M92.6959 13.3259C91.9199 13.3259 91.2316 13.1504 90.631 12.7993C90.0305 12.4483 89.564 11.9725 89.2314 11.3719C88.908 10.7622 88.7463 10.0924 88.7463 9.36251C88.7463 8.62341 88.9126 7.95359 89.2452 7.35307C89.5778 6.75255 90.0351 6.28138 90.6172 5.93954C91.1992 5.59771 91.8459 5.42679 92.5573 5.42679C93.3334 5.42679 94.0032 5.58847 94.5668 5.91182C95.1303 6.23518 95.5599 6.68326 95.8556 7.25607C96.1512 7.81963 96.299 8.45249 96.299 9.15464C96.299 9.49647 96.2667 9.7644 96.202 9.95841H90.9082C90.9729 10.4388 91.1623 10.8222 91.4764 11.1086C91.7998 11.3858 92.2155 11.5244 92.7236 11.5244C93.0839 11.5244 93.3981 11.4505 93.666 11.3027C93.9339 11.1548 94.1418 10.9516 94.2896 10.6929L95.9526 11.4828C95.7216 12.0371 95.3105 12.4852 94.7192 12.8271C94.1372 13.1596 93.4627 13.3259 92.6959 13.3259ZM94.0956 8.43401C94.0494 8.02751 93.8877 7.70415 93.6106 7.46394C93.3334 7.21449 92.9823 7.08977 92.5573 7.08977C92.1416 7.08977 91.7905 7.20525 91.5041 7.43622C91.227 7.66719 91.0422 7.99979 90.9498 8.43401H94.0956Z" fill="#021F33"/>
  <path d="M86.863 13.2428C85.9484 13.2428 85.237 12.998 84.7289 12.5083C84.23 12.0094 83.9805 11.3165 83.9805 10.4296V7.39467H82.7056V5.59311H82.7749C83.1629 5.59311 83.4585 5.4961 83.6618 5.30209C83.8743 5.10807 83.9805 4.81705 83.9805 4.42902V3.87469H86.0592V5.59311H87.8331V7.39467H86.0592V10.291C86.0592 10.6791 86.1655 10.9701 86.378 11.1641C86.5905 11.3489 86.9138 11.4413 87.3481 11.4413C87.4774 11.4413 87.6391 11.4274 87.8331 11.3997V13.1735C87.5282 13.2197 87.2049 13.2428 86.863 13.2428Z" fill="#021F33"/>
  <path d="M74.9224 5.59309H76.8625V6.50773C77.0565 6.14741 77.3337 5.87949 77.694 5.70395C78.0635 5.51918 78.4932 5.42679 78.9828 5.42679C79.5464 5.42679 80.0453 5.54689 80.4795 5.7871C80.9137 6.02731 81.2509 6.36452 81.4911 6.79875C81.7313 7.23297 81.8514 7.73186 81.8514 8.29543V13.1596H79.7727V8.73889C79.7727 8.30467 79.6434 7.95821 79.3847 7.69953C79.1352 7.4316 78.8026 7.29764 78.3869 7.29764C77.9712 7.29764 77.6339 7.4316 77.3753 7.69953C77.1258 7.95821 77.0011 8.30467 77.0011 8.73889V13.1596H74.9224V5.59309Z" fill="#021F33"/>
  <path d="M70.0953 13.3259C69.3193 13.3259 68.631 13.1504 68.0305 12.7993C67.4299 12.4483 66.9634 11.9725 66.6308 11.3719C66.3074 10.7622 66.1458 10.0924 66.1458 9.36251C66.1458 8.62341 66.3121 7.95359 66.6446 7.35307C66.9772 6.75255 67.4346 6.28138 68.0166 5.93954C68.5986 5.59771 69.2454 5.42679 69.9567 5.42679C70.7328 5.42679 71.4026 5.58847 71.9662 5.91182C72.5297 6.23518 72.9594 6.68326 73.255 7.25607C73.5506 7.81963 73.6985 8.45249 73.6985 9.15464C73.6985 9.49647 73.6661 9.7644 73.6014 9.95841H68.3076C68.3723 10.4388 68.5617 10.8222 68.8758 11.1086C69.1992 11.3858 69.6149 11.5244 70.123 11.5244C70.4834 11.5244 70.7975 11.4505 71.0654 11.3027C71.3333 11.1548 71.5412 10.9516 71.689 10.6929L73.352 11.4828C73.121 12.0371 72.7099 12.4852 72.1186 12.8271C71.5366 13.1596 70.8621 13.3259 70.0953 13.3259ZM71.495 8.43401C71.4488 8.02751 71.2871 7.70415 71.01 7.46394C70.7328 7.21449 70.3817 7.08977 69.9567 7.08977C69.541 7.08977 69.1899 7.20525 68.9035 7.43622C68.6264 7.66719 68.4416 7.99979 68.3492 8.43401H71.495Z" fill="#021F33"/>
  <path d="M60.9392 13.326C59.9599 13.326 59.073 13.095 58.2784 12.6331C57.4839 12.1711 56.8603 11.5336 56.4076 10.7206C55.9549 9.90762 55.7285 8.9976 55.7285 7.99057C55.7285 6.98355 55.9549 6.07353 56.4076 5.26051C56.8603 4.4475 57.4793 3.81465 58.2646 3.36195C59.0591 2.90001 59.9506 2.66904 60.9392 2.66904C61.6598 2.66904 62.3204 2.79376 62.9209 3.04321C63.5307 3.28342 64.0434 3.61139 64.4592 4.02714C64.8749 4.44288 65.1752 4.90944 65.3599 5.42681L63.4614 6.34145C63.2766 5.82408 62.9625 5.40834 62.519 5.09422C62.0756 4.77086 61.5489 4.60918 60.9392 4.60918C60.3387 4.60918 59.8028 4.75238 59.3316 5.03878C58.8697 5.31595 58.5094 5.71321 58.2507 6.23059C58.0013 6.73872 57.8765 7.32538 57.8765 7.99057C57.8765 8.65577 58.0013 9.24705 58.2507 9.76442C58.5094 10.2726 58.8697 10.6698 59.3316 10.9562C59.8028 11.2426 60.3387 11.3858 60.9392 11.3858C61.5489 11.3858 62.0756 11.2288 62.519 10.9146C62.9625 10.5913 63.2766 10.1709 63.4614 9.65356L65.3599 10.5682C65.1752 11.0856 64.8749 11.5521 64.4592 11.9679C64.0434 12.3836 63.5307 12.7162 62.9209 12.9657C62.3204 13.2059 61.6598 13.326 60.9392 13.326Z" fill="#021F33"/>
</svg>